<?xml version="1.0" encoding="UTF-8" standalone="no"?>
<!-- Created with Inkscape (http://www.inkscape.org/) -->

<svg
   width="48"
   height="48"
   viewBox="0 0 48 48"
   version="1.1"
   id="svg1"
   inkscape:version="1.4 (e7c3feb100, 2024-10-09)"
   sodipodi:docname="icon.svg"
   xmlns:inkscape="http://www.inkscape.org/namespaces/inkscape"
   xmlns:sodipodi="http://sodipodi.sourceforge.net/DTD/sodipodi-0.dtd"
   xmlns="http://www.w3.org/2000/svg"
   xmlns:svg="http://www.w3.org/2000/svg"
   xmlns:rdf="http://www.w3.org/1999/02/22-rdf-syntax-ns#"
   xmlns:cc="http://creativecommons.org/ns#"
   xmlns:dc="http://purl.org/dc/elements/1.1/">
  <title
     id="title1">Arrow Condition Node Icon</title>
  <sodipodi:namedview
     id="namedview1"
     pagecolor="#ffffff"
     bordercolor="#000000"
     borderopacity="0.25"
     inkscape:showpageshadow="2"
     inkscape:pageopacity="0.0"
     inkscape:pagecheckerboard="true"
     inkscape:deskcolor="#d1d1d1"
     inkscape:document-units="px"
     inkscape:zoom="13.155132"
     inkscape:cx="17.977774"
     inkscape:cy="27.859849"
     inkscape:window-width="1876"
     inkscape:window-height="1172"
     inkscape:window-x="0"
     inkscape:window-y="0"
     inkscape:window-maximized="1"
     inkscape:current-layer="layer1" />
  <defs
     id="defs1" />
  <g
     inkscape:label="condition"
     inkscape:groupmode="layer"
     id="layer1"
     style="fill:none;stroke:none">
    <path
       d="m 29.229568,36.84375 v 8.5625 q 0,0.625 -0.4375,1.03125 -0.40625,0.40625 -1,0.40625 h -8.5625 q -0.59375,0 -1.03125,-0.40625 -0.40625,-0.40625 -0.40625,-1.03125 v -8.5625 q 0,-0.5625 0.40625,-1 0.4375,-0.4375 1.03125,-0.4375 h 8.5625 q 0.59375,0 1,0.4375 0.4375,0.4375 0.4375,1 z m 11.28125,-21.4375 q 0,1.625 -0.34375,3.03125 -0.3125,1.40625 -1,2.53125 -0.6875,1.125 -1.34375,1.90625 -0.65625,0.78125 -1.75,1.59375 -1.09375,0.8125 -1.75,1.1875 -0.65625,0.375 -1.8125,1.0625 -1.4375,0.8125 -2.4375,2.3125 -1,1.5 -1,2.375 0,0.625 -0.4375,1.1875 -0.40625,0.5625 -1,0.5625 h -8.5625 q -0.53125,0 -0.90625,-0.6875 -0.375,-0.6875 -0.375,-1.3125 v -1.625 q 0,-1.5 0.6875,-3.0625 0.71875,-1.5625 1.84375,-2.75 1.15625,-1.1875 2.40625,-2.125 1.25,-0.9375 2.5,-1.5 2.125,-1 3,-2.03125 0.875,-1.03125 0.875,-2.71875 0,-1.5 -1.65625,-2.625 -1.65625,-1.125 -3.84375,-1.125 -2.3125,0 -3.84375,1 -1.375,1 -3.84375,4.125 -0.5,0.5625 -1.09375,0.5625 -0.5,0 -0.90625,-0.25 l -5.8437505,-4.5 q -0.4375,-0.3125 -0.5625,-0.84375 -0.09375,-0.53125 0.21875,-1.03125 5.6875005,-9.5 16.5625005,-9.5 3.84375,0 7.5625,1.8125 3.71875,1.8125 6.1875,5.15625 2.46875,3.34375 2.46875,7.28125 z"
       id="text1"
       style="font-size:64px;font-family:'DejaVuSansMono NF';-inkscape-font-specification:'DejaVuSansMono NF';fill:#ffffff;stroke-width:20;stroke-linecap:round;stroke-dasharray:20, 40;stroke-opacity:0.5"
       inkscape:label="icon"
       aria-label="" />
    <text
       xml:space="preserve"
       style="font-size:64px;font-family:'DejaVuSansMono NF';-inkscape-font-specification:'DejaVuSansMono NF';text-align:start;writing-mode:lr-tb;direction:ltr;text-anchor:start;display:none;fill:#ffffff;stroke-width:20;stroke-linecap:round;stroke-dasharray:20, 40;stroke-opacity:0.5"
       x="4.7295675"
       y="46.15625"
       id="text2"
       inkscape:label="nerd"><tspan
         sodipodi:role="line"
         id="tspan2"
         x="4.7295675"
         y="46.15625"
         style="font-size:64px"></tspan></text>
  </g>
  <metadata
     id="metadata1">
    <rdf:RDF>
      <cc:Work
         rdf:about="">
        <dc:title>Arrow Condition Node Icon</dc:title>
        <dc:creator>
          <cc:Agent>
            <dc:title>M. H. Golkar</dc:title>
          </cc:Agent>
        </dc:creator>
      </cc:Work>
    </rdf:RDF>
  </metadata>
</svg>
