<?xml version="1.0" encoding="UTF-8" standalone="no"?>
<!-- Created with Inkscape (http://www.inkscape.org/) -->

<svg
   width="48"
   height="48"
   viewBox="0 0 48 48"
   version="1.1"
   id="svg1"
   inkscape:version="1.4 (e7c3feb100, 2024-10-09)"
   sodipodi:docname="icon.svg"
   xmlns:inkscape="http://www.inkscape.org/namespaces/inkscape"
   xmlns:sodipodi="http://sodipodi.sourceforge.net/DTD/sodipodi-0.dtd"
   xmlns="http://www.w3.org/2000/svg"
   xmlns:svg="http://www.w3.org/2000/svg"
   xmlns:rdf="http://www.w3.org/1999/02/22-rdf-syntax-ns#"
   xmlns:cc="http://creativecommons.org/ns#"
   xmlns:dc="http://purl.org/dc/elements/1.1/">
  <title
     id="title1">Arrow Generator Node Icon</title>
  <sodipodi:namedview
     id="namedview1"
     pagecolor="#ffffff"
     bordercolor="#000000"
     borderopacity="0.25"
     inkscape:showpageshadow="2"
     inkscape:pageopacity="0.0"
     inkscape:pagecheckerboard="true"
     inkscape:deskcolor="#d1d1d1"
     inkscape:document-units="px"
     inkscape:zoom="9.3020835"
     inkscape:cx="35.099663"
     inkscape:cy="40.152295"
     inkscape:window-width="1876"
     inkscape:window-height="1172"
     inkscape:window-x="0"
     inkscape:window-y="0"
     inkscape:window-maximized="1"
     inkscape:current-layer="layer1" />
  <defs
     id="defs1" />
  <g
     inkscape:label="generator"
     inkscape:groupmode="layer"
     id="layer1"
     style="fill:none;stroke:none">
    <text
       xml:space="preserve"
       style="font-size:47.5341px;font-family:'DejaVuSansMono NF';-inkscape-font-specification:'DejaVuSansMono NF';text-align:start;writing-mode:lr-tb;direction:ltr;text-anchor:start;display:none;fill:#ffffff;stroke-width:14.8544;stroke-linecap:round;stroke-dasharray:14.8544, 29.7088;stroke-opacity:0.5"
       x="2.2870359"
       y="40.455898"
       id="text1"
       inkscape:label="nerd"><tspan
         sodipodi:role="line"
         id="tspan1"
         x="0"
         y="0"
         style="font-size:47.5341px;stroke-width:14.8544"></tspan></text>
    <path
       d="M 33.133139,17.710089 40.908492,9.9347357 38.076871,7.0799045 30.301517,14.855258 Z M 44.993454,9.9347357 q 0,0.6963003 -0.487411,1.1837103 L 10.410539,45.23716 q -0.4641999,0.4642 -1.2069202,0.4642 -0.7195103,0 -1.1837105,-0.4642 L 2.7512361,39.991698 q -0.4642002,-0.4642 -0.4642002,-1.20692 0,-0.719511 0.4642002,-1.183711 L 36.86995,3.4823531 q 0.48741,-0.4874102 1.206921,-0.4874102 0.6963,0 1.18371,0.4874102 l 5.245462,5.2454621 q 0.487411,0.4874102 0.487411,1.2069205 z M 9.1571988,4.8981636 11.75672,5.687304 9.1571988,6.4764443 8.3680584,9.0759654 7.5557081,6.4764443 4.956187,5.687304 7.5557081,4.8981636 8.3680584,2.2986426 Z m 9.2840042,4.2938518 5.199042,1.5782806 -5.199042,1.601491 -1.601491,5.199042 -1.578281,-5.199042 -5.199042,-1.601491 5.199042,-1.5782806 1.578281,-5.1990421 z m 24.67224,12.6726656 2.599521,0.78914 -2.599521,0.81235 -0.812351,2.599521 -0.78914,-2.599521 -2.599521,-0.81235 2.599521,-0.78914 0.78914,-2.599521 z M 26.123716,4.8981636 28.723237,5.687304 26.123716,6.4764443 25.334575,9.0759654 24.545435,6.4764443 21.945914,5.687304 l 2.599521,-0.7891404 0.78914,-2.599521 z"
       id="text2"
       style="font-size:47.5341px;font-family:'DejaVuSansMono NF';-inkscape-font-specification:'DejaVuSansMono NF';fill:#ffffff;stroke-width:14.8544;stroke-linecap:round;stroke-dasharray:14.8544, 29.7088;stroke-opacity:0.5"
       inkscape:label="icon"
       aria-label="" />
  </g>
  <metadata
     id="metadata1">
    <rdf:RDF>
      <cc:Work
         rdf:about="">
        <dc:title>Arrow Generator Node Icon</dc:title>
        <dc:creator>
          <cc:Agent>
            <dc:title>M. H. Golkar</dc:title>
          </cc:Agent>
        </dc:creator>
      </cc:Work>
    </rdf:RDF>
  </metadata>
</svg>
