<?xml version="1.0" encoding="UTF-8" standalone="no"?>
<!-- Created with Inkscape (http://www.inkscape.org/) -->

<svg
   width="48"
   height="48"
   viewBox="0 0 48 48"
   version="1.1"
   id="svg1"
   inkscape:version="1.4 (e7c3feb100, 2024-10-09)"
   sodipodi:docname="icon.svg"
   xmlns:inkscape="http://www.inkscape.org/namespaces/inkscape"
   xmlns:sodipodi="http://sodipodi.sourceforge.net/DTD/sodipodi-0.dtd"
   xmlns="http://www.w3.org/2000/svg"
   xmlns:svg="http://www.w3.org/2000/svg"
   xmlns:rdf="http://www.w3.org/1999/02/22-rdf-syntax-ns#"
   xmlns:cc="http://creativecommons.org/ns#"
   xmlns:dc="http://purl.org/dc/elements/1.1/">
  <title
     id="title1">Arrow Tag-Edit Node Icon</title>
  <sodipodi:namedview
     id="namedview1"
     pagecolor="#ffffff"
     bordercolor="#000000"
     borderopacity="0.25"
     inkscape:showpageshadow="2"
     inkscape:pageopacity="0.0"
     inkscape:pagecheckerboard="true"
     inkscape:deskcolor="#d1d1d1"
     inkscape:document-units="px"
     inkscape:zoom="9.302083"
     inkscape:cx="29.50952"
     inkscape:cy="33.164615"
     inkscape:window-width="1876"
     inkscape:window-height="1172"
     inkscape:window-x="0"
     inkscape:window-y="0"
     inkscape:window-maximized="1"
     inkscape:current-layer="layer1" />
  <defs
     id="defs1" />
  <g
     inkscape:label="tag_edit"
     inkscape:groupmode="layer"
     id="layer1"
     style="fill:none;stroke:none">
    <path
       d="m 14.227514,14.239836 q 1.059816,-1.059816 1.059816,-2.563275 0,-1.503459 -1.059816,-2.563275 -1.035168,-1.0598156 -2.538628,-1.0598156 -1.503459,0 -2.5632747,1.0598156 -1.0598156,1.059816 -1.0598156,2.563275 0,1.503459 1.0598156,2.563275 1.0598157,1.059816 2.5632747,1.059816 1.50346,0 2.538628,-1.059816 z M 45.33187,27.918851 q 0,1.478813 -1.035169,2.513981 L 30.469805,44.284376 q -1.084463,1.035169 -2.563275,1.035169 -1.50346,0 -2.538628,-1.035169 L 5.2314051,24.123233 Q 4.1715895,23.088064 3.4075364,21.288842 2.6681302,19.48962 2.6681302,18.010808 V 6.2788955 q 0,-1.4788125 1.0598156,-2.5386281 1.0598156,-1.0598156 2.538628,-1.0598156 H 17.998486 q 1.503459,0 3.302681,0.7394062 1.799222,0.7394062 2.859038,1.8238687 L 44.296701,25.355576 q 1.035169,1.084463 1.035169,2.563275 z"
       id="text2"
       style="font-size:50.4768px;font-family:'DejaVuSansMono NF';-inkscape-font-specification:'DejaVuSansMono NF';fill:#ffffff;stroke-width:15.774;stroke-linecap:round;stroke-dasharray:15.774, 31.5481;stroke-opacity:0.5"
       inkscape:label="icon"
       aria-label="" />
    <text
       xml:space="preserve"
       style="font-size:50.4768px;font-family:'DejaVuSansMono NF';-inkscape-font-specification:'DejaVuSansMono NF';text-align:start;writing-mode:lr-tb;direction:ltr;text-anchor:start;display:none;fill:#ffffff;stroke-width:15.774;stroke-linecap:round;stroke-dasharray:15.774, 31.5481;stroke-opacity:0.5"
       x="2.6681302"
       y="41.474632"
       id="text1"
       inkscape:label="nerd"><tspan
         sodipodi:role="line"
         id="tspan1"
         x="2.6681302"
         y="41.474632"
         style="font-size:50.4768px;stroke-width:15.774"></tspan></text>
  </g>
  <metadata
     id="metadata1">
    <rdf:RDF>
      <cc:Work
         rdf:about="">
        <dc:title>Arrow Tag-Edit Node Icon</dc:title>
        <dc:creator>
          <cc:Agent>
            <dc:title>M. H. Golkar</dc:title>
          </cc:Agent>
        </dc:creator>
      </cc:Work>
    </rdf:RDF>
  </metadata>
</svg>
