<?xml version="1.0" encoding="UTF-8" standalone="no"?>
<!-- Created with Inkscape (http://www.inkscape.org/) -->

<svg
   width="48"
   height="48"
   viewBox="0 0 48 48"
   version="1.1"
   id="svg1"
   inkscape:version="1.4 (e7c3feb100, 2024-10-09)"
   sodipodi:docname="icon.svg"
   xmlns:inkscape="http://www.inkscape.org/namespaces/inkscape"
   xmlns:sodipodi="http://sodipodi.sourceforge.net/DTD/sodipodi-0.dtd"
   xmlns="http://www.w3.org/2000/svg"
   xmlns:svg="http://www.w3.org/2000/svg"
   xmlns:rdf="http://www.w3.org/1999/02/22-rdf-syntax-ns#"
   xmlns:cc="http://creativecommons.org/ns#"
   xmlns:dc="http://purl.org/dc/elements/1.1/">
  <title
     id="title1">Arrow Monolog Node Icon</title>
  <sodipodi:namedview
     id="namedview1"
     pagecolor="#ffffff"
     bordercolor="#000000"
     borderopacity="0.25"
     inkscape:showpageshadow="2"
     inkscape:pageopacity="0.0"
     inkscape:pagecheckerboard="true"
     inkscape:deskcolor="#d1d1d1"
     inkscape:document-units="px"
     inkscape:zoom="9.302083"
     inkscape:cx="29.509519"
     inkscape:cy="33.164615"
     inkscape:window-width="1876"
     inkscape:window-height="1172"
     inkscape:window-x="0"
     inkscape:window-y="0"
     inkscape:window-maximized="1"
     inkscape:current-layer="layer1" />
  <defs
     id="defs1" />
  <g
     inkscape:label="monolog"
     inkscape:groupmode="layer"
     id="layer1"
     style="fill:none;stroke:none">
    <text
       xml:space="preserve"
       style="font-size:38.0122px;font-family:'DejaVuSansMono NF';-inkscape-font-specification:'DejaVuSansMono NF';text-align:start;writing-mode:lr-tb;direction:ltr;text-anchor:start;display:none;fill:#ffffff;stroke-width:11.8788;stroke-linecap:round;stroke-dasharray:11.8788, 23.7577;stroke-opacity:0.5"
       x="2.274766"
       y="37.159496"
       id="text2"
       inkscape:label="nerd"><tspan
         sodipodi:role="line"
         id="tspan2"
         x="2.274766"
         y="37.159496"
         style="font-size:38.0122px;stroke-width:11.8788"></tspan></text>
    <path
       d="m 23.805113,26.487126 c 0.123738,0.754799 0.185607,1.583841 0.185607,2.487126 0,0.903285 -0.266036,1.658084 -0.798108,2.264399 -0.519698,0.606314 -1.156947,0.909471 -1.911746,0.909471 H 10.422889 c -0.7547997,0 -1.3982354,-0.303157 -1.9303072,-0.909471 -0.5196981,-0.606315 -0.7795471,-1.361114 -0.7795471,-2.264399 0,-0.903285 0.061869,-1.732327 0.1856065,-2.487126 0.1237376,-0.754799 0.3279047,-1.484851 0.6125012,-2.190156 0.2969703,-0.705305 0.730052,-1.255937 1.2992451,-1.651897 0.5691935,-0.395961 1.2559365,-0.593941 2.0602315,-0.593941 0.09899,0.04949 0.309344,0.173231 0.631062,0.371213 0.334091,0.19798 0.600127,0.346465 0.798108,0.445455 0.19798,0.09899 0.451642,0.222728 0.760986,0.371213 0.309344,0.148485 0.606314,0.253662 0.890911,0.315531 0.29697,0.06187 0.59394,0.0928 0.890911,0.0928 0.29697,0 0.587753,-0.03093 0.87235,-0.0928 0.296971,-0.06187 0.600128,-0.167044 0.909472,-0.315531 0.321718,-0.148485 0.57538,-0.272223 0.760986,-0.371213 0.19798,-0.09899 0.464016,-0.247475 0.798108,-0.445455 l 0.649622,-0.371213 c 0.804295,0 1.491039,0.19798 2.060232,0.593941 0.569193,0.39596 0.996088,0.946592 1.280684,1.651897 0.296971,0.705305 0.507325,1.435357 0.631062,2.190156 z M 20.668364,17.96779 c 0,1.336367 -0.470203,2.468566 -1.410609,3.396598 -0.940406,0.928032 -2.078792,1.392048 -3.415158,1.392048 -1.323993,0 -2.456192,-0.464016 -3.396598,-1.392048 -0.940406,-0.928032 -1.410609,-2.060231 -1.410609,-3.396598 0,-1.336366 0.470203,-2.474752 1.410609,-3.415158 0.940406,-0.940406 2.072605,-1.410609 3.396598,-1.410609 1.323993,0 2.456192,0.470203 3.396598,1.410609 0.952779,0.940406 1.429169,2.078792 1.429169,3.415158 z m 19.618601,9.428807 v 1.373488 c 0,0.19798 -0.06806,0.358839 -0.204167,0.482577 -0.123737,0.123737 -0.284596,0.185606 -0.482576,0.185606 H 27.387318 c -0.197981,0 -0.35884,-0.06187 -0.482577,-0.185606 -0.123738,-0.123738 -0.185607,-0.284597 -0.185607,-0.482577 v -1.373488 c 0,-0.19798 0.06187,-0.358839 0.185607,-0.482576 0.123737,-0.123738 0.284596,-0.185607 0.482577,-0.185607 h 12.212904 c 0.19798,0 0.358839,0.06187 0.482576,0.185607 0.136111,0.123737 0.204167,0.284596 0.204167,0.482576 z m 0,-5.345465 v 1.187881 c 0,0.19798 -0.07424,0.3774 -0.222727,0.538259 -0.148485,0.160859 -0.327905,0.241288 -0.538259,0.241288 H 27.480121 c -0.210354,0 -0.389774,-0.08043 -0.538259,-0.241288 -0.148485,-0.160859 -0.222728,-0.340279 -0.222728,-0.538259 v -1.187881 c 0,-0.222728 0.07424,-0.408334 0.222728,-0.556819 0.148485,-0.148485 0.327905,-0.222728 0.538259,-0.222728 h 12.045858 c 0.210354,0 0.389774,0.07424 0.538259,0.222728 0.148485,0.148485 0.222727,0.334091 0.222727,0.556819 z m 0,-5.531072 v 1.373488 c 0,0.19798 -0.06806,0.358839 -0.204167,0.482576 -0.123737,0.123738 -0.284596,0.185607 -0.482576,0.185607 H 27.387318 c -0.197981,0 -0.35884,-0.06187 -0.482577,-0.185607 -0.123738,-0.123737 -0.185607,-0.284596 -0.185607,-0.482576 V 16.52006 c 0,-0.19798 0.06187,-0.358839 0.185607,-0.482577 0.123737,-0.123737 0.284596,-0.185606 0.482577,-0.185606 h 12.212904 c 0.19798,0 0.358839,0.06187 0.482576,0.185606 0.136111,0.123738 0.204167,0.284597 0.204167,0.482577 z m 2.709854,24.379587 V 7.1003525 c 0,-0.1732327 -0.06806,-0.3279047 -0.204167,-0.464016 -0.136111,-0.1361113 -0.290783,-0.204167 -0.464016,-0.204167 H 5.6713639 c -0.1732327,0 -0.3340917,0.068056 -0.4825768,0.204167 C 5.0526757,6.7724478 4.98462,6.9271198 4.98462,7.1003525 V 40.899647 c 0,0.173233 0.068056,0.327905 0.2041671,0.464016 0.1484851,0.136111 0.3093441,0.204167 0.4825768,0.204167 h 7.4613791 v -2.04167 c 0,-0.197981 0.06187,-0.35884 0.185606,-0.482577 0.136111,-0.123738 0.303157,-0.185607 0.501138,-0.185607 h 1.354927 c 0.19798,0 0.358839,0.06187 0.482576,0.185607 0.123738,0.123737 0.185607,0.284596 0.185607,0.482577 v 2.04167 h 16.296246 v -2.04167 c 0,-0.197981 0.06187,-0.35884 0.185606,-0.482577 0.136111,-0.123738 0.303157,-0.185607 0.501137,-0.185607 h 1.354927 c 0.197981,0 0.35884,0.06187 0.482577,0.185607 0.123738,0.123737 0.185607,0.284596 0.185607,0.482577 v 2.04167 h 7.479939 c 0.173233,0 0.327905,-0.06806 0.464016,-0.204167 0.136111,-0.136111 0.204167,-0.290783 0.204167,-0.464016 z M 45.725234,7.1003525 V 40.899647 c 0,0.940406 -0.334092,1.738514 -1.002275,2.394323 -0.655809,0.65581 -1.453917,0.983715 -2.394323,0.983715 H 5.6713639 c -0.940406,0 -1.7447006,-0.327905 -2.4128838,-0.983715 C 2.6026707,42.638161 2.274766,41.840053 2.274766,40.899647 V 7.1003525 c 0,-0.9404061 0.3279047,-1.7385139 0.9837141,-2.3943233 C 3.9266633,4.0502197 4.7309579,3.722315 5.6713639,3.722315 H 42.328636 c 0.940406,0 1.738514,0.3279047 2.394323,0.9837142 0.668183,0.6558094 1.002275,1.4539172 1.002275,2.3943233 z"
       id="text1"
       style="font-size:38.0122px;font-family:'DejaVuSansMono NF';-inkscape-font-specification:'DejaVuSansMono NF';fill:#ffffff;stroke-width:11.8788;stroke-linecap:round;stroke-dasharray:11.8788, 23.7577;stroke-opacity:0.5"
       inkscape:label="icon"
       aria-label=""
       sodipodi:nodetypes="sscsscsscsccsscscccccscsssssssscssscsssssssscsssssssssssssssscsssssssscsssssscsscscscssssccscsssscssssscsscsscsscs" />
  </g>
  <metadata
     id="metadata1">
    <rdf:RDF>
      <cc:Work
         rdf:about="">
        <dc:title>Arrow Monolog Node Icon</dc:title>
        <dc:creator>
          <cc:Agent>
            <dc:title>M. H. Golkar</dc:title>
          </cc:Agent>
        </dc:creator>
      </cc:Work>
    </rdf:RDF>
  </metadata>
</svg>
