<?xml version="1.0" encoding="UTF-8" standalone="no"?>
<!-- Created with Inkscape (http://www.inkscape.org/) -->

<svg
   width="48"
   height="48"
   viewBox="0 0 48 48"
   version="1.1"
   id="svg1"
   inkscape:version="1.4 (e7c3feb100, 2024-10-09)"
   sodipodi:docname="icon.svg"
   xmlns:inkscape="http://www.inkscape.org/namespaces/inkscape"
   xmlns:sodipodi="http://sodipodi.sourceforge.net/DTD/sodipodi-0.dtd"
   xmlns="http://www.w3.org/2000/svg"
   xmlns:svg="http://www.w3.org/2000/svg"
   xmlns:rdf="http://www.w3.org/1999/02/22-rdf-syntax-ns#"
   xmlns:cc="http://creativecommons.org/ns#"
   xmlns:dc="http://purl.org/dc/elements/1.1/">
  <title
     id="title1">Arrow Entry Node Icon</title>
  <sodipodi:namedview
     id="namedview1"
     pagecolor="#ffffff"
     bordercolor="#000000"
     borderopacity="0.25"
     inkscape:showpageshadow="2"
     inkscape:pageopacity="0.0"
     inkscape:pagecheckerboard="true"
     inkscape:deskcolor="#d1d1d1"
     inkscape:document-units="px"
     inkscape:zoom="9.3020835"
     inkscape:cx="30.477043"
     inkscape:cy="40.152295"
     inkscape:window-width="1876"
     inkscape:window-height="1172"
     inkscape:window-x="0"
     inkscape:window-y="0"
     inkscape:window-maximized="1"
     inkscape:current-layer="layer1" />
  <defs
     id="defs1" />
  <g
     inkscape:label="entry"
     inkscape:groupmode="layer"
     id="layer1"
     style="fill:none;stroke:none">
    <text
       xml:space="preserve"
       style="font-size:53.6531px;font-family:'DejaVuSansMono NF';-inkscape-font-specification:'DejaVuSansMono NF';text-align:start;writing-mode:lr-tb;direction:ltr;text-anchor:start;display:none;fill:#ffffff;stroke-width:16.7666;stroke-linecap:round;stroke-dasharray:16.7666, 33.5332;stroke-opacity:0.5"
       x="7.8359561"
       y="42.574242"
       id="text1"
       inkscape:label="nerd"><tspan
         sodipodi:role="line"
         id="tspan1"
         x="7.8359561"
         y="42.574242"
         style="font-size:53.6531px;stroke-width:16.7666"></tspan></text>
    <path
       d="m 29.422945,21.773187 q 2.253011,-2.253011 2.253011,-5.422945 0,-3.169935 -2.253011,-5.422946 Q 27.169934,8.6742855 24,8.6742855 q -3.169934,0 -5.422945,2.2530105 -2.253011,2.253011 -2.253011,5.422946 0,3.169934 2.253011,5.422945 2.253011,2.253011 5.422945,2.253011 3.169934,0 5.422945,-2.253011 z m 9.902769,-5.449143 q 0,3.353318 -0.995516,5.396747 L 27.431912,44.879648 q -0.47156,0.943121 -1.414681,1.519473 -0.943121,0.576351 -2.043429,0.576351 -1.100307,0 -2.01723,-0.576351 -0.916924,-0.576352 -1.388484,-1.519473 L 9.6698023,21.720791 q -0.9955165,-2.095824 -0.9955165,-5.396747 0,-4.139253 2.0434282,-7.6759563 Q 12.761143,5.1113844 16.297846,3.0679558 19.83455,1.0245272 24,1.0245272 q 4.165451,0 7.675956,2.0434286 3.510506,2.0434286 5.580132,5.5801319 2.069626,3.5367033 2.069626,7.6759563 z"
       id="text2"
       style="font-size:53.6531px;font-family:'DejaVuSansMono NF';-inkscape-font-specification:'DejaVuSansMono NF';fill:#ffffff;stroke-width:16.7666;stroke-linecap:round;stroke-dasharray:16.7666, 33.5332;stroke-opacity:0.5"
       inkscape:label="icon"
       aria-label="" />
  </g>
  <metadata
     id="metadata1">
    <rdf:RDF>
      <cc:Work
         rdf:about="">
        <dc:title>Arrow Entry Node Icon</dc:title>
        <dc:creator>
          <cc:Agent>
            <dc:title>M. H. Golkar</dc:title>
          </cc:Agent>
        </dc:creator>
      </cc:Work>
    </rdf:RDF>
  </metadata>
</svg>
