<?xml version="1.0" encoding="UTF-8" standalone="no"?>
<!-- Created with Inkscape (http://www.inkscape.org/) -->

<svg
   width="48"
   height="48"
   viewBox="0 0 48 48"
   version="1.1"
   id="svg1"
   inkscape:version="1.4 (e7c3feb100, 2024-10-09)"
   sodipodi:docname="icon.svg"
   xmlns:inkscape="http://www.inkscape.org/namespaces/inkscape"
   xmlns:sodipodi="http://sodipodi.sourceforge.net/DTD/sodipodi-0.dtd"
   xmlns="http://www.w3.org/2000/svg"
   xmlns:svg="http://www.w3.org/2000/svg"
   xmlns:rdf="http://www.w3.org/1999/02/22-rdf-syntax-ns#"
   xmlns:cc="http://creativecommons.org/ns#"
   xmlns:dc="http://purl.org/dc/elements/1.1/">
  <title
     id="title1">Arrow Sequencer Node Icon</title>
  <sodipodi:namedview
     id="namedview1"
     pagecolor="#ffffff"
     bordercolor="#000000"
     borderopacity="0.25"
     inkscape:showpageshadow="2"
     inkscape:pageopacity="0.0"
     inkscape:pagecheckerboard="true"
     inkscape:deskcolor="#d1d1d1"
     inkscape:document-units="px"
     inkscape:zoom="9.302083"
     inkscape:cx="31.44457"
     inkscape:cy="30.047034"
     inkscape:window-width="1876"
     inkscape:window-height="1172"
     inkscape:window-x="0"
     inkscape:window-y="0"
     inkscape:window-maximized="1"
     inkscape:current-layer="layer1" />
  <defs
     id="defs1" />
  <g
     inkscape:label="sequencer"
     inkscape:groupmode="layer"
     id="layer1"
     style="fill:none;stroke:none">
    <text
       xml:space="preserve"
       style="font-size:53.3892px;font-family:'DejaVuSansMono NF';-inkscape-font-specification:'DejaVuSansMono NF';text-align:start;writing-mode:lr-tb;direction:ltr;text-anchor:start;display:none;fill:#ffffff;stroke-width:16.684;stroke-linecap:round;stroke-dasharray:16.684, 33.3682;stroke-opacity:0.5"
       x="1.7371215"
       y="42.482883"
       id="text1"
       inkscape:label="nerd"><tspan
         sodipodi:role="line"
         id="tspan1"
         x="0"
         y="0"
         style="font-size:53.3892px;stroke-width:16.684"></tspan></text>
    <path
       d="m 23.947862,21.81021 q -0.938482,0 -1.564137,0.625655 -0.625654,0.625655 -0.625654,1.564137 0,0.938482 0.625654,1.564136 0.625655,0.625655 1.564137,0.625655 0.938482,0 1.564137,-0.625655 0.625654,-0.625654 0.625654,-1.564136 0,-0.938482 -0.625654,-1.564137 Q 24.886344,21.81021 23.947862,21.81021 Z M 25.094896,1.7892611 q 7.299304,0.4171031 8.185648,4.2753069 0.886344,3.8582038 -3.180411,6.256547 -1.668412,0.834206 -2.502619,2.346205 -0.834206,1.511998 -1.147033,3.180411 1.668412,0.625655 2.71117,1.98124 6.465098,-3.336825 11.626749,-2.033378 5.161651,1.303447 5.474479,7.351442 -0.417103,7.299305 -4.327445,8.133511 -3.910342,0.834206 -6.204409,-3.232549 -0.938482,-1.564137 -2.450481,-2.398343 -1.511998,-0.834206 -3.076135,-1.147034 -0.729931,1.564137 -2.085516,2.711171 3.336825,6.465098 2.033378,11.574611 -1.303447,5.109513 -7.351442,5.422341 -7.299305,-0.417104 -8.133511,-4.275307 -0.834206,-3.858204 3.232549,-6.256547 1.564137,-0.834206 2.398343,-2.346205 0.834206,-1.511999 1.147033,-3.076136 -1.668412,-0.72993 -2.71117,-2.085515 -6.465098,3.336825 -11.626749,1.98124 -5.161651,-1.355585 -5.3702025,-7.299305 0.4171031,-7.299304 4.2753069,-8.185648 3.8582037,-0.886344 6.2565466,3.284687 0.834206,1.564136 2.346205,2.398343 1.511999,0.834206 3.180411,1.147033 0.625655,-1.668412 1.98124,-2.71117 -3.336825,-6.465098 -1.98124,-11.6267493 1.355585,-5.161651 7.299305,-5.3702026 z"
       id="text2"
       style="font-size:53.3892px;font-family:'DejaVuSansMono NF';-inkscape-font-specification:'DejaVuSansMono NF';fill:#ffffff;stroke-width:16.684;stroke-linecap:round;stroke-dasharray:16.684, 33.3682;stroke-opacity:0.5"
       inkscape:label="icon"
       aria-label="" />
  </g>
  <metadata
     id="metadata1">
    <rdf:RDF>
      <cc:Work
         rdf:about="">
        <dc:title>Arrow Sequencer Node Icon</dc:title>
        <dc:creator>
          <cc:Agent>
            <dc:title>M. H. Golkar</dc:title>
          </cc:Agent>
        </dc:creator>
      </cc:Work>
    </rdf:RDF>
  </metadata>
</svg>
