<?xml version="1.0" encoding="UTF-8" standalone="no"?>
<!-- Created with Inkscape (http://www.inkscape.org/) -->

<svg
   width="48"
   height="48"
   viewBox="0 0 48 48"
   version="1.1"
   id="svg1"
   inkscape:version="1.4 (e7c3feb100, 2024-10-09)"
   sodipodi:docname="icon.svg"
   xmlns:inkscape="http://www.inkscape.org/namespaces/inkscape"
   xmlns:sodipodi="http://sodipodi.sourceforge.net/DTD/sodipodi-0.dtd"
   xmlns="http://www.w3.org/2000/svg"
   xmlns:svg="http://www.w3.org/2000/svg"
   xmlns:rdf="http://www.w3.org/1999/02/22-rdf-syntax-ns#"
   xmlns:cc="http://creativecommons.org/ns#"
   xmlns:dc="http://purl.org/dc/elements/1.1/">
  <title
     id="title1">Arrow Hub Node Icon</title>
  <sodipodi:namedview
     id="namedview1"
     pagecolor="#ffffff"
     bordercolor="#000000"
     borderopacity="0.25"
     inkscape:showpageshadow="2"
     inkscape:pageopacity="0.0"
     inkscape:pagecheckerboard="true"
     inkscape:deskcolor="#d1d1d1"
     inkscape:document-units="px"
     inkscape:zoom="9.302083"
     inkscape:cx="31.44457"
     inkscape:cy="30.047033"
     inkscape:window-width="1876"
     inkscape:window-height="1172"
     inkscape:window-x="0"
     inkscape:window-y="0"
     inkscape:window-maximized="1"
     inkscape:current-layer="layer1" />
  <defs
     id="defs1" />
  <g
     inkscape:label="hub"
     inkscape:groupmode="layer"
     id="layer1"
     style="fill:none;stroke:none">
    <text
       xml:space="preserve"
       style="font-size:52.452px;font-family:'DejaVuSansMono NF';-inkscape-font-specification:'DejaVuSansMono NF';text-align:start;writing-mode:lr-tb;direction:ltr;text-anchor:start;display:none;fill:#ffffff;stroke-width:16.3912;stroke-linecap:round;stroke-dasharray:16.3912, 32.7825;stroke-opacity:0.5"
       x="1.5260597"
       y="42.158432"
       id="text1"
       inkscape:label="nerd"><tspan
         sodipodi:role="line"
         id="tspan1"
         x="1.5260597"
         y="42.158432"
         style="font-size:52.452px;stroke-width:16.3912"></tspan></text>
    <path
       d="m 46.47394,22.130374 v 3.739253 q 0,4.405149 -1.690347,8.246848 -1.690348,3.841699 -4.661262,6.5565 -2.945303,2.714801 -7.119949,4.25148 -4.174647,1.53668 -8.989576,1.53668 -4.81493,0 -9.015188,-1.53668 Q 10.822972,43.387776 7.8520578,40.672975 4.906755,37.958174 3.2164074,34.116475 1.5260597,30.274776 1.5260597,25.869627 v -3.739253 q 0,-0.76834 0.5378379,-1.33179 0.5634492,-0.563449 1.3317891,-0.563449 H 14.63906 q 0.76834,0 1.306177,0.563449 0.56345,0.56345 0.56345,1.33179 v 3.739253 q 0,1.53668 0.665894,2.637967 0.691506,1.101287 1.587902,1.664737 0.896397,0.563449 2.074518,0.870785 1.203732,0.307336 1.869627,0.38417 0.691506,0.07683 1.306178,0.07683 0.614672,0 1.280566,-0.07683 0.691506,-0.07683 1.869627,-0.38417 1.203732,-0.307336 2.074518,-0.870785 0.896396,-0.56345 1.562291,-1.664737 0.691505,-1.101287 0.691505,-2.637967 v -3.739253 q 0,-0.76834 0.537838,-1.33179 0.56345,-0.563449 1.331789,-0.563449 h 11.243373 q 0.76834,0 1.306178,0.563449 0.563449,0.56345 0.563449,1.33179 z M 16.508687,3.3828815 V 14.651866 q 0,0.76834 -0.56345,1.306178 -0.537837,0.537837 -1.306177,0.537837 H 3.3956867 q -0.7683399,0 -1.3317891,-0.537837 Q 1.5260597,15.420206 1.5260597,14.651866 V 3.3828815 q 0,-0.7683399 0.5378379,-1.3061778 Q 2.6273468,1.5388659 3.3956867,1.5388659 H 14.63906 q 0.76834,0 1.306177,0.5378378 0.56345,0.5378379 0.56345,1.3061778 z m 29.965253,0 V 14.651866 q 0,0.76834 -0.563449,1.306178 -0.537838,0.537837 -1.306178,0.537837 H 33.36094 q -0.768339,0 -1.331789,-0.537837 -0.537838,-0.537838 -0.537838,-1.306178 V 3.3828815 q 0,-0.7683399 0.537838,-1.3061778 0.56345,-0.5378378 1.331789,-0.5378378 h 11.243373 q 0.76834,0 1.306178,0.5378378 0.563449,0.5378379 0.563449,1.3061778 z"
       id="text2"
       style="font-size:52.452px;font-family:'DejaVuSansMono NF';-inkscape-font-specification:'DejaVuSansMono NF';fill:#ffffff;stroke-width:16.3912;stroke-linecap:round;stroke-dasharray:16.3912, 32.7825;stroke-opacity:0.5"
       inkscape:label="icon"
       aria-label="" />
  </g>
  <metadata
     id="metadata1">
    <rdf:RDF>
      <cc:Work
         rdf:about="">
        <dc:title>Arrow Hub Node Icon</dc:title>
        <dc:creator>
          <cc:Agent>
            <dc:title>M. H. Golkar</dc:title>
          </cc:Agent>
        </dc:creator>
      </cc:Work>
    </rdf:RDF>
  </metadata>
</svg>
