<svg width="17" height="17" viewBox="0 0 17 17" fill="none" xmlns="http://www.w3.org/2000/svg">
<path d="M14.2081 2.38665C13.3905 1.47508 12.0763 1.4286 11.2927 2.306L7.26383 6.81805L5.32598 5.77719C5.74246 4.43457 5.16361 2.89428 3.96228 2.24919C2.6937 1.56815 1.21272 2.14326 0.653705 3.53407C0.0950462 4.92488 0.670003 6.60467 1.93867 7.28606C2.8092 7.75356 3.77993 7.62895 4.48379 7.05545L6.85726 8.33006L5.06302 10.3393C4.20551 10.0414 3.25075 10.2563 2.59252 10.9931C1.63347 12.0673 1.66765 13.8423 2.66827 14.9581C3.6693 16.0741 5.25782 16.1079 6.21678 15.0341C7.12489 14.0171 7.14196 12.3717 6.29159 11.2525L7.75657 9.61162L13.0855 12.4734C14.1219 13.0301 15.341 12.5368 15.7975 11.4005L9.28298 7.9023L14.2081 2.38665ZM3.21022 6.20894C2.50542 6.33321 1.82065 5.79093 1.68079 4.99777C1.54093 4.20461 1.99897 3.46082 2.70374 3.33655C3.40869 3.21224 4.09331 3.75455 4.23316 4.54772C4.37302 5.34088 3.91517 6.08464 3.21022 6.20894ZM4.66213 14.4431C3.95733 14.5674 3.27255 14.0251 3.1327 13.232C2.99284 12.4388 3.45085 11.695 4.15565 11.5707C4.8606 11.4464 5.54522 11.9887 5.68507 12.7819C5.82492 13.575 5.36708 14.3188 4.66213 14.4431Z" fill="#E0E0E0"/>
</svg>
