<svg width="14" height="14" viewBox="0 0 14 14" fill="none" xmlns="http://www.w3.org/2000/svg">
<g clip-path="url(#clip0)">
<path d="M11.4545 1.27274H8.79134C8.53042 0.534546 7.83044 0 6.99998 0C6.16953 0 5.46952 0.534546 5.20863 1.27274H2.54544C1.84227 1.27274 1.27271 1.84227 1.27271 2.54548V12.7273C1.27271 13.4305 1.84224 14 2.54544 14H11.4545C12.1577 14 12.7273 13.4305 12.7273 12.7273V2.54545C12.7273 1.84227 12.1577 1.27274 11.4545 1.27274ZM6.99998 1.27274C7.34997 1.27274 7.63634 1.55591 7.63634 1.90909C7.63634 2.26227 7.34997 2.54545 6.99998 2.54545C6.64999 2.54545 6.3636 2.26227 6.3636 1.90909C6.3636 1.55591 6.64996 1.27274 6.99998 1.27274ZM11.4545 12.7273H2.54541V2.54545H3.81815V4.45454H10.1818V2.54545H11.4545V12.7273Z" fill="#E0E0E0"/>
</g>
<defs>
<clipPath id="clip0">
<rect width="14" height="14" fill="white"/>
</clipPath>
</defs>
</svg>
