<?xml version="1.0" encoding="UTF-8" standalone="no"?>
<!-- Created with Inkscape (http://www.inkscape.org/) -->

<svg
   width="48"
   height="48"
   viewBox="0 0 48 48"
   version="1.1"
   id="svg1"
   inkscape:version="1.4 (e7c3feb100, 2024-10-09)"
   sodipodi:docname="icon.svg"
   xmlns:inkscape="http://www.inkscape.org/namespaces/inkscape"
   xmlns:sodipodi="http://sodipodi.sourceforge.net/DTD/sodipodi-0.dtd"
   xmlns="http://www.w3.org/2000/svg"
   xmlns:svg="http://www.w3.org/2000/svg"
   xmlns:rdf="http://www.w3.org/1999/02/22-rdf-syntax-ns#"
   xmlns:cc="http://creativecommons.org/ns#"
   xmlns:dc="http://purl.org/dc/elements/1.1/">
  <title
     id="title1">Arrow Content Node Icon</title>
  <sodipodi:namedview
     id="namedview1"
     pagecolor="#ffffff"
     bordercolor="#000000"
     borderopacity="0.25"
     inkscape:showpageshadow="2"
     inkscape:pageopacity="0.0"
     inkscape:pagecheckerboard="true"
     inkscape:deskcolor="#d1d1d1"
     inkscape:document-units="px"
     inkscape:zoom="13.155132"
     inkscape:cx="22.994828"
     inkscape:cy="24.2871"
     inkscape:window-width="1876"
     inkscape:window-height="1172"
     inkscape:window-x="0"
     inkscape:window-y="0"
     inkscape:window-maximized="1"
     inkscape:current-layer="layer1" />
  <defs
     id="defs1" />
  <g
     inkscape:label="content"
     inkscape:groupmode="layer"
     id="layer1"
     style="fill:none;stroke:none">
    <path
       d="m 42.092706,10.664964 q 0.723257,0.723256 1.220495,1.966353 0.519841,1.220495 0.519841,2.260176 v 29.766514 q 0,1.039681 -0.723256,1.762937 Q 42.409131,47.1442 41.36945,47.1442 H 6.6531511 q -1.0396808,0 -1.762937,-0.723256 Q 4.1669579,45.697688 4.1669579,44.658007 V 3.3193931 q 0,-1.0396809 0.7232562,-1.7403353 0.7232562,-0.72325627 1.762937,-0.72325627 H 29.797351 q 1.03968,0 2.260175,0.51984037 1.243097,0.4972387 1.966353,1.2204949 z M 30.611014,4.3590739 v 9.7187551 h 9.718755 Q 40.035947,13.286768 39.764725,13.015547 L 31.673296,4.9241178 Q 31.402075,4.6528967 30.611014,4.3590739 Z M 40.533185,43.821742 V 17.377686 H 29.797351 q -1.039681,0 -1.762938,-0.723256 -0.723256,-0.723256 -0.723256,-1.762937 V 4.1556581 H 7.4668144 V 43.821742 Z M 14.089129,21.513808 q 0,-0.361629 0.226018,-0.587646 0.226017,-0.248619 0.587646,-0.248619 h 18.194414 q 0.361628,0 0.587646,0.248619 0.248619,0.226017 0.248619,0.587646 v 1.649928 q 0,0.361628 -0.248619,0.610247 -0.226018,0.226018 -0.587646,0.226018 H 14.902793 q -0.361629,0 -0.587646,-0.226018 -0.226018,-0.248619 -0.226018,-0.610247 z m 19.008078,5.786049 q 0.361628,0 0.587646,0.226018 0.248619,0.226018 0.248619,0.587646 v 1.67253 q 0,0.361628 -0.248619,0.587645 -0.226018,0.226018 -0.587646,0.226018 H 14.902793 q -0.361629,0 -0.587646,-0.226018 -0.226018,-0.226017 -0.226018,-0.587645 v -1.67253 q 0,-0.361628 0.226018,-0.587646 0.226017,-0.226018 0.587646,-0.226018 z m 0,6.599714 q 0.361628,0 0.587646,0.248619 0.248619,0.226017 0.248619,0.587646 v 1.649928 q 0,0.361628 -0.248619,0.610247 -0.226018,0.226018 -0.587646,0.226018 H 14.902793 q -0.361629,0 -0.587646,-0.226018 -0.226018,-0.248619 -0.226018,-0.610247 v -1.649928 q 0,-0.361629 0.226018,-0.587646 0.226017,-0.248619 0.587646,-0.248619 z"
       id="text2"
       style="fill:#ffffff;stroke:none;font-size:46.2884px;font-family:'DejaVuSansMono NF';-inkscape-font-specification:'DejaVuSansMono NF';stroke-width:14.4651;stroke-linecap:round;stroke-dasharray:14.4651, 28.9303;stroke-opacity:0.5"
       inkscape:label="icon"
       aria-label=" " />
    <text
       xml:space="preserve"
       style="font-size:46.2884px;font-family:'DejaVuSansMono NF';-inkscape-font-specification:'DejaVuSansMono NF';text-align:start;writing-mode:lr-tb;direction:ltr;text-anchor:start;display:none;fill:#ffffff;stroke-width:14.4651;stroke-linecap:round;stroke-dasharray:14.4651, 28.9303;stroke-opacity:0.5"
       x="4.1669579"
       y="40.024647"
       id="text1"
       inkscape:label="nerd"><tspan
         sodipodi:role="line"
         id="tspan1"
         x="0"
         y="0"
         style="font-size:46.2884px;stroke-width:14.4651"> </tspan></text>
  </g>
  <metadata
     id="metadata1">
    <rdf:RDF>
      <cc:Work
         rdf:about="">
        <dc:title>Arrow Content Node Icon</dc:title>
        <dc:creator>
          <cc:Agent>
            <dc:title>M. H. Golkar</dc:title>
          </cc:Agent>
        </dc:creator>
      </cc:Work>
    </rdf:RDF>
  </metadata>
</svg>
